<svg width="1440" height="64" viewBox="0 0 1440 64" fill="none" xmlns="http://www.w3.org/2000/svg">
<path d="M0 33.391C48 -9.79701 96 -9.79701 144 33.391C185.595 65.0534 233.595 65.0534 288 33.391C336 1.72863 384 1.72863 432 33.391C480.602 65.8483 528.602 65.8483 576 33.391C624 0.933758 672 0.933758 720 33.391C773.192 72.8697 821.192 72.8697 864 33.391C912 -6.08761 960 -6.08761 1008 33.391C1044.08 53.2628 1092.08 53.2628 1152 33.391C1200 13.5192 1248 13.5192 1296 33.391C1365.44 71.015 1413.44 71.015 1440 33.391" stroke="#4C75F2" stroke-width="2"/>
</svg>
